<svg id="Layer_1" data-name="Layer 1" xmlns="http://www.w3.org/2000/svg" viewBox="0 0 512 512"><title>smartphone-girl</title><g id="smartphone-girl"><path id="label" d="M256,0C114.61,0,0,114.63,0,256S114.61,512,256,512,512,397.37,512,256,397.37,0,256,0Z" fill="#84d4f0"/><g id="smartphone-girl-2" data-name="smartphone-girl"><path d="M330.15,409.6H181.85A10.59,10.59,0,0,1,171.26,399V113a10.59,10.59,0,0,1,10.59-10.6h148.3A10.6,10.6,0,0,1,340.74,113V399A10.6,10.6,0,0,1,330.15,409.6Z" fill="#fff"/><path d="M330.15,414.72H181.85A15.73,15.73,0,0,1,166.14,399V113a15.73,15.73,0,0,1,15.71-15.72h148.3A15.73,15.73,0,0,1,345.86,113V399a15.73,15.73,0,0,1-15.71,15.71Zm-148.3-307.2a5.48,5.48,0,0,0-5.47,5.48V399a5.48,5.48,0,0,0,5.47,5.47h148.3a5.48,5.48,0,0,0,5.48-5.47V113a5.48,5.48,0,0,0-5.48-5.48Z" fill="#2c4c76"/><path d="M340.74,351.16H171.26a5.12,5.12,0,1,1,0-10.24H340.74a5.12,5.12,0,1,1,0,10.24Z" fill="#2c4c76"/><path d="M340.74,149.9H171.26a5.12,5.12,0,1,1,0-10.24H340.74a5.12,5.12,0,1,1,0,10.24Z" fill="#2c4c76"/><path d="M266.59,128.7H245.4a5.12,5.12,0,0,1,0-10.24h21.19a5.12,5.12,0,1,1,0,10.24Z" fill="#2c4c76"/><circle cx="256" cy="377.82" r="10.59" fill="#2c4c76"/><circle cx="256" cy="245.41" r="74.15" fill="#fc6e51"/><path d="M241.11,290.54c-26.57-5.85-41.74-9.71-28.25-57.73,15.16-54,67.4-31.57,67.4-31.57s27.2,10.24,23.61,51.52c0,0-2.32,29.84-29,36.65" fill="#fff"/><path d="M292.86,241.9c0,20.55-16.67,47.52-37.23,47.52-19.27,0-35.12-23.69-37-43.6" fill="#fff"/><path d="M220.08,246.63s32.29,5.39,58.54-23.54" fill="#fff"/><path d="M214.6,243.16s23.7-5.51,37.62-18.52" fill="#fff"/><path d="M278.61,223.09s2.05,14.86,12.89,19.1" fill="#fff"/><path d="M240.83,297.1a4.21,4.21,0,0,1-.94-.11c-13.95-3.07-26-6.45-32.19-16.8-6-10-5.67-24.93,1-48.56,4.79-17.07,13.63-28.78,26.26-34.81,21.56-10.31,46,0,47,.42S312,209.07,308.2,253.14c-.11,1.42-3,36.1-32.39,43.61a4.35,4.35,0,1,1-2.15-8.43c23.27-5.95,25.84-35.58,25.87-35.88,3.24-37.28-19.84-46.74-20.83-47.13-.37-.15-22.1-9.24-40.07-.61-10.24,4.92-17.51,14.77-21.58,29.29-5.86,20.85-6.45,34.11-1.88,41.73,4.42,7.38,14.23,10.05,26.6,12.77a4.36,4.36,0,0,1-.93,8.61Z" fill="#2c4c76"/><path d="M255.64,293.76c-21.69,0-39.2-25-41.36-47.53a4.35,4.35,0,0,1,3.92-4.75,4.29,4.29,0,0,1,4.75,3.92c1.75,18.34,16.42,39.66,32.69,39.66,17.4,0,32.87-24.14,32.87-43.17a4.35,4.35,0,0,1,8.7,0c0,23.5-18.55,51.87-41.58,51.87Z" fill="#2c4c76"/><path d="M258.12,275.69h-5a4.35,4.35,0,0,1,0-8.7h5a4.35,4.35,0,0,1,0,8.7Z" fill="#2c4c76"/><path d="M226.63,251.4a47.86,47.86,0,0,1-7.27-.48,4.35,4.35,0,0,1,1.42-8.59c1.3.21,30.4,4.51,54.61-22.17a4.35,4.35,0,0,1,6.45,5.85c-20.18,22.24-43.59,25.39-55.21,25.39Z" fill="#2c4c76"/><path d="M272.6,298.54a4.35,4.35,0,0,1-4.35-4.35V283.57a4.35,4.35,0,0,1,8.7,0v10.62a4.35,4.35,0,0,1-4.35,4.35Z" fill="#2c4c76"/><path d="M242.92,298.54a4.35,4.35,0,0,1-4.35-4.35v-7.31a4.35,4.35,0,0,1,8.71,0v7.31a4.35,4.35,0,0,1-4.35,4.35Z" fill="#2c4c76"/><path d="M214.59,247.51a4.36,4.36,0,0,1-1-8.6c.22,0,22.75-5.42,35.64-17.46a4.35,4.35,0,1,1,5.94,6.36c-14.61,13.65-38.59,19.35-39.61,19.58a4.67,4.67,0,0,1-1,.11Z" fill="#2c4c76"/><path d="M291.51,246.55a4.32,4.32,0,0,1-1.59-.3c-13.07-5.12-15.51-21.85-15.61-22.56a4.35,4.35,0,0,1,8.62-1.2c0,.18,1.9,12.41,10.17,15.66a4.35,4.35,0,0,1-1.59,8.4Z" fill="#2c4c76"/></g></g></svg>